<?xml version="1.0" encoding="utf-8"?>
<!DOCTYPE svg PUBLIC "-//W3C//DTD SVG 1.1//EN" "http://www.w3.org/Graphics/SVG/1.1/DTD/svg11.dtd">
<svg version="1.1" id="frontier_logo" xmlns="http://www.w3.org/2000/svg" xmlns:xlink="http://www.w3.org/1999/xlink" x="0px" y="0px" width="474.29px" height="113.245px" viewBox="0 0 474.29 113.245" enable-background="new 0 0 474.29 113.245" xml:space="preserve">
	<path d="M0,112.796V0h60.598v10.2H10.05v27.749h44.248v10.05H10.05v64.798H0z" id="frontier_logo-0" />
	<path d="M67.198,38.548h10.049v11.7c6.75-7.35,16.5-11.85,27.449-11.85v10.05c-14.999,0-26.849,11.699-27.449,26.248v38.1H67.198V38.548z" id="frontier_logo-1" />
	<path d="M182.145,75.747c0,20.85-16.649,37.498-37.799,37.498c-20.999,0-37.499-16.648-37.499-37.498c0-21.149,16.2-37.799,37.499-37.799C164.595,37.948,182.145,54.448,182.145,75.747z M172.095,75.597c0-15.299-12.3-27.599-27.6-27.599c-15.149,0-27.599,12.299-27.599,27.599c0,15.149,12.449,27.6,27.599,27.6C159.795,103.196,172.095,90.746,172.095,75.597z" id="frontier_logo-2" />
	<path d="M191.845,38.398h10.05v10.649c6.749-7.2,16.349-11.699,27.448-11.699c20.249,0,37.799,16.499,37.799,37.799v37.648h-10.05V75.147c0-15.3-12.449-27.75-27.599-27.75c-14.999,0-26.999,11.85-27.599,26.699v38.699h-10.05V38.398z" id="frontier_logo-3" />
	<path d="M277.645,24.449h10.049v13.649h27.299v10.049h-27.299v27.449c0,15,12.149,27.299,27.449,27.299v10.05c-20.999,0-37.498-16.649-37.498-37.349V24.449z" id="frontier_logo-4" />
	<g>
		<path d="M330.343,39.148h10.05v73.647h-10.05V39.148z" id="frontier_logo-5" />
		<path d="M335.293,33.074c-4.5,0-8.55-1.75-8.55-6.55s5.353-4.432,8.55-10.7c3.646,6.236,8.699,5.9,8.699,10.7S340.093,33.074,335.293,33.074z" id="frontier_logo-5b" />
	</g>
	<path d="M373.192,98.097c4.351,2.999,9.75,4.799,15.6,4.799c15.3,0,27.749-12.149,27.749-27.449h9.899c0,20.85-16.649,37.499-37.799,37.499c-20.999,0-37.498-16.649-37.498-37.499c0-21.148,16.199-37.798,37.498-37.798c12,0,22.949,5.85,29.999,14.85L373.192,98.097z M365.993,90.896l38.398-38.398c-4.35-3-9.75-4.8-15.6-4.8c-15.299,0-27.599,12.299-27.599,27.599C361.193,81.146,362.993,86.546,365.993,90.896z" id="frontier_logo-6" />
	<path d="M436.792,38.548h10.05v11.7c6.75-7.35,16.499-11.85,27.448-11.85v10.05c-14.999,0-26.849,11.699-27.448,26.248v38.1h-10.05V38.548z" id="frontier_logo-7" />
</svg>
